<svg width="92" height="123" viewBox="0 0 92 123" fill="none" xmlns="http://www.w3.org/2000/svg">
<g clip-path="url(#clip0_1_12)">
<path fill-rule="evenodd" clip-rule="evenodd" d="M14.45 35.35C16.27 49.8 19.1 60.75 23.89 64.8C24.48 30.87 43 27.4 38.18 0C53.52 3 67.77 33.33 71.36 66.15C75.3041 60.3969 77.5655 53.6577 77.89 46.69C91.65 62.41 99.2 103.51 77.72 116.21C65.19 123.62 39.59 124 26.26 121.48C21.3626 120.929 16.7016 119.078 12.76 116.12C-6.44003 101.46 -2.41003 53.87 14.45 35.35Z" fill="#F4679F"/>
<path fill-rule="evenodd" clip-rule="evenodd" d="M77.73 116.2C69.73 120.94 56.31 122.81 44.22 122.87H42.45C37.0237 122.867 31.6075 122.402 26.26 121.48C21.3626 120.929 16.7017 119.078 12.76 116.12C12.6811 116.048 12.5976 115.981 12.51 115.92C10.38 105.64 14.27 91.92 21 84.63C21.251 89.574 22.9363 94.3379 25.85 98.34C28.51 75.22 39.11 57 50.5 54.94C47.5 74.04 61.5 79.15 61.12 97.39C64.68 94.54 66.78 86.82 68.12 76.64C77.24 86.13 81.71 102.96 77.71 116.2H77.73Z" fill="#FB9BB2"/>
<path fill-rule="evenodd" clip-rule="evenodd" d="M65.81 120.73C52.773 123.286 39.3917 123.563 26.26 121.55L25.26 121.42C25.32 115.69 27.47 109.42 30.73 105.69C30.8742 108.85 31.8881 111.909 33.66 114.53C35.27 99.62 41.66 87.9 48.54 86.53C46.75 98.85 55.19 102.14 54.94 113.9C57.09 112.06 58.36 107.08 59.17 100.52C63.64 105.52 66.26 113.36 65.8 120.71L65.81 120.73Z" fill="#FEC9D3"/>
</g>
<defs>
<clipPath id="clip0_1_12">
<rect width="91.16" height="122.88" fill="white"/>
</clipPath>
</defs>
</svg>
